<svg xmlns="http://www.w3.org/2000/svg" xmlns:xlink="http://www.w3.org/1999/xlink" width="500" zoomAndPan="magnify" viewBox="0 0 375 89.999999" height="120" preserveAspectRatio="xMidYMid meet" version="1.0"><metadata><ContainsAiGeneratedContent>Yes</ContainsAiGeneratedContent></metadata><defs><g/></defs><g fill="#2b394c" fill-opacity="1"><g transform="translate(2.316596, 66.940763)"><g><path d="M 4.203125 -49.875 L 20.4375 -49.875 L 20.4375 5.609375 L 5.453125 5.609375 L 5.453125 -25.671875 C 5.453125 -31.472656 5.453125 -36.054688 5.453125 -39.421875 C 5.453125 -42.796875 5.429688 -44.976562 5.390625 -45.96875 C 5.335938 -47.882812 5.1875 -48.96875 4.9375 -49.21875 L 4.796875 -49.359375 C 4.691406 -49.453125 4.59375 -49.546875 4.5 -49.640625 C 4.40625 -49.742188 4.304688 -49.820312 4.203125 -49.875 Z M 22.359375 -49.875 L 24.859375 -49.875 L 26.046875 -47.078125 C 26.285156 -46.578125 26.65625 -45.710938 27.15625 -44.484375 C 27.59375 -43.304688 27.882812 -42.570312 28.03125 -42.28125 C 28.875 -40.257812 29.820312 -37.929688 30.875 -35.296875 C 31.9375 -32.671875 33.101562 -29.6875 34.375 -26.34375 C 36.988281 -19.695312 38.613281 -15.34375 39.25 -13.28125 L 39.546875 -12.546875 L 39.625 -16.828125 L 39.625 -34.828125 C 39.519531 -44.117188 39.421875 -48.863281 39.328125 -49.0625 C 39.179688 -49.3125 38.882812 -49.582031 38.4375 -49.875 L 54.15625 -49.875 L 54.15625 5.609375 L 35.265625 5.609375 L 32.984375 -0.21875 C 31.253906 -4.59375 29.566406 -8.734375 27.921875 -12.640625 C 26.273438 -16.554688 24.691406 -20.285156 23.171875 -23.828125 L 22.359375 -25.75 Z M 22.359375 -49.875 "/></g></g></g><g fill="#2b394c" fill-opacity="1"><g transform="translate(61.990692, 66.940763)"><g><path d="M 4.203125 -49.734375 C 5.535156 -49.734375 7.820312 -49.753906 11.0625 -49.796875 C 13.863281 -49.796875 17.859375 -49.804688 23.046875 -49.828125 C 28.242188 -49.859375 35.097656 -49.875 43.609375 -49.875 L 43.609375 -38.4375 L 20.296875 -38.4375 L 20.296875 -5.828125 L 45.75 -5.828125 L 45.75 -5.453125 C 45.75 -5.503906 45.707031 -5.367188 45.625 -5.046875 C 45.550781 -4.734375 45.453125 -4.304688 45.328125 -3.765625 C 45.210938 -3.222656 45.09375 -2.617188 44.96875 -1.953125 C 44.84375 -1.285156 44.707031 -0.632812 44.5625 0 C 43.820312 3.488281 43.429688 5.285156 43.390625 5.390625 C 43.335938 5.535156 37.039062 5.609375 24.5 5.609375 L 5.75 5.609375 L 5.75 -21.171875 C 5.75 -30.171875 5.738281 -36.847656 5.71875 -41.203125 C 5.695312 -45.554688 5.632812 -47.90625 5.53125 -48.25 C 5.382812 -48.988281 4.941406 -49.484375 4.203125 -49.734375 Z M 22.71875 -28.1875 L 42.421875 -28.1875 L 42.421875 -16.890625 L 22.71875 -16.890625 Z M 22.71875 -28.1875 "/></g></g></g><g fill="#2b394c" fill-opacity="1"><g transform="translate(110.231548, 66.940763)"><g><path d="M 4.28125 -49.65625 C 4.175781 -49.707031 4.25 -49.753906 4.5 -49.796875 C 4.75 -49.847656 5.472656 -49.875 6.671875 -49.875 C 7.878906 -49.875 9.613281 -49.875 11.875 -49.875 L 19.84375 -49.875 L 19.84375 5.609375 L 5.390625 5.609375 L 5.390625 -48.546875 L 5.015625 -48.984375 C 4.867188 -49.285156 4.625 -49.507812 4.28125 -49.65625 Z M 21.84375 -49.875 L 27.890625 -49.875 C 29.515625 -49.875 30.851562 -49.875 31.90625 -49.875 C 32.96875 -49.875 33.769531 -49.847656 34.3125 -49.796875 C 36.519531 -49.648438 38.570312 -48.972656 40.46875 -47.765625 C 42.363281 -46.566406 43.898438 -45.054688 45.078125 -43.234375 C 46.847656 -40.523438 47.6875 -37.625 47.59375 -34.53125 C 47.539062 -33.351562 47.390625 -32.34375 47.140625 -31.5 C 46.554688 -29.726562 45.523438 -28.175781 44.046875 -26.84375 C 42.566406 -25.519531 40.894531 -24.738281 39.03125 -24.5 C 38.238281 -24.351562 37.820312 -24.253906 37.78125 -24.203125 C 37.78125 -24.097656 38 -24.046875 38.4375 -24.046875 C 40.0625 -24.046875 41.515625 -23.75 42.796875 -23.15625 C 44.078125 -22.570312 45.171875 -21.773438 46.078125 -20.765625 C 46.984375 -19.753906 47.71875 -18.582031 48.28125 -17.25 C 48.851562 -15.925781 49.210938 -14.503906 49.359375 -12.984375 C 49.609375 -9.984375 49.066406 -7.179688 47.734375 -4.578125 C 46.703125 -2.359375 45.265625 -0.460938 43.421875 1.109375 C 41.578125 2.679688 39.523438 3.859375 37.265625 4.640625 C 36.671875 4.890625 36.101562 5.078125 35.5625 5.203125 C 35.019531 5.328125 34.53125 5.410156 34.09375 5.453125 C 33.59375 5.503906 32.828125 5.53125 31.796875 5.53125 C 30.765625 5.53125 29.410156 5.53125 27.734375 5.53125 L 21.84375 5.609375 L 21.84375 -4.578125 L 25.453125 -4.578125 C 26.441406 -4.578125 27.242188 -4.585938 27.859375 -4.609375 C 28.472656 -4.628906 28.953125 -4.664062 29.296875 -4.71875 C 29.835938 -4.769531 30.472656 -4.96875 31.203125 -5.3125 C 31.648438 -5.601562 32.109375 -6.003906 32.578125 -6.515625 C 33.046875 -7.035156 33.378906 -7.546875 33.578125 -8.046875 C 34.066406 -9.078125 34.285156 -10.28125 34.234375 -11.65625 C 34.179688 -13.03125 33.910156 -14.210938 33.421875 -15.203125 C 33.171875 -15.640625 32.8125 -16.078125 32.34375 -16.515625 C 31.882812 -16.960938 31.457031 -17.285156 31.0625 -17.484375 C 30.375 -17.878906 29.757812 -18.101562 29.21875 -18.15625 C 28.925781 -18.195312 28.472656 -18.21875 27.859375 -18.21875 C 27.242188 -18.21875 26.441406 -18.21875 25.453125 -18.21875 L 21.84375 -18.21875 L 21.84375 -29.0625 L 24.796875 -29.0625 C 25.722656 -29.0625 26.484375 -29.0625 27.078125 -29.0625 C 27.671875 -29.0625 28.085938 -29.085938 28.328125 -29.140625 C 29.804688 -29.484375 30.953125 -30.242188 31.765625 -31.421875 C 32.578125 -32.609375 32.859375 -33.960938 32.609375 -35.484375 C 32.367188 -36.617188 31.988281 -37.492188 31.46875 -38.109375 C 30.945312 -38.722656 30.34375 -39.175781 29.65625 -39.46875 C 28.96875 -39.769531 28.207031 -39.941406 27.375 -39.984375 C 26.539062 -40.035156 25.65625 -40.0625 24.71875 -40.0625 L 21.84375 -40.0625 Z M 21.84375 -49.875 "/></g></g></g><g fill="#2b394c" fill-opacity="1"><g transform="translate(162.603122, 66.940763)"><g><path d="M 3.03125 -49.578125 L 2.359375 -49.875 L 20.65625 -49.875 L 20.734375 -30.109375 L 20.734375 -10.625 L 21.171875 -9.515625 C 21.859375 -7.304688 23.601562 -5.757812 26.40625 -4.875 C 27.050781 -4.820312 27.375 -4.648438 27.375 -4.359375 C 27.375 -4.253906 27.375 -3.757812 27.375 -2.875 C 27.375 -1.988281 27.347656 -0.710938 27.296875 0.953125 L 27.296875 6.046875 C 25.234375 6.046875 23.164062 5.945312 21.09375 5.75 C 19.03125 5.550781 17.066406 4.914062 15.203125 3.84375 C 13.035156 2.800781 11.148438 1.375 9.546875 -0.4375 C 7.953125 -2.257812 6.785156 -4.300781 6.046875 -6.5625 C 5.847656 -7.25 5.6875 -7.945312 5.5625 -8.65625 C 5.445312 -9.375 5.363281 -10.15625 5.3125 -11 C 5.257812 -11.78125 5.222656 -13.617188 5.203125 -16.515625 C 5.179688 -19.421875 5.171875 -23.335938 5.171875 -28.265625 L 5.171875 -31.796875 C 5.210938 -35.785156 5.222656 -38.957031 5.203125 -41.3125 C 5.179688 -43.675781 5.144531 -45.203125 5.09375 -45.890625 C 5.039062 -47.171875 4.796875 -48.054688 4.359375 -48.546875 C 3.910156 -48.992188 3.46875 -49.335938 3.03125 -49.578125 Z M 32.90625 -49.65625 C 32.707031 -49.707031 32.753906 -49.78125 33.046875 -49.875 L 51.421875 -49.875 L 51.421875 -30.6875 C 51.421875 -24.488281 51.410156 -19.71875 51.390625 -16.375 C 51.367188 -13.03125 51.332031 -11.160156 51.28125 -10.765625 C 50.976562 -8.210938 50.273438 -5.890625 49.171875 -3.796875 C 48.066406 -1.703125 46.648438 0.0507812 44.921875 1.46875 C 43.203125 2.894531 41.234375 4 39.015625 4.78125 C 36.804688 5.570312 34.453125 5.96875 31.953125 5.96875 L 29.359375 5.96875 L 29.4375 0.4375 L 29.4375 -4.875 L 29.953125 -4.9375 C 31.285156 -5.1875 32.488281 -5.863281 33.5625 -6.96875 C 34.644531 -8.070312 35.410156 -9.390625 35.859375 -10.921875 C 36.003906 -11.515625 36.078125 -17.46875 36.078125 -28.78125 C 36.078125 -40.289062 36.003906 -46.265625 35.859375 -46.703125 C 35.410156 -48.078125 34.425781 -49.0625 32.90625 -49.65625 Z M 32.90625 -49.65625 "/></g></g></g><g fill="#2b394c" fill-opacity="1"><g transform="translate(219.179187, 66.940763)"><g><path d="M 4.421875 -49.65625 C 4.128906 -49.75 4.179688 -49.796875 4.578125 -49.796875 C 4.816406 -49.847656 5.5625 -49.875 6.8125 -49.875 C 8.070312 -49.875 9.882812 -49.875 12.25 -49.875 L 20.515625 -49.875 L 20.515625 -5.828125 L 44.265625 -5.828125 L 43.15625 -0.140625 C 42.957031 0.835938 42.796875 1.671875 42.671875 2.359375 C 42.554688 3.046875 42.445312 3.632812 42.34375 4.125 C 42.25 4.664062 42.15625 5.132812 42.0625 5.53125 C 42.0625 5.582031 36.007812 5.609375 23.90625 5.609375 L 5.828125 5.609375 L 5.828125 -21.171875 C 5.828125 -39.023438 5.753906 -48.101562 5.609375 -48.40625 C 5.359375 -48.988281 4.960938 -49.40625 4.421875 -49.65625 Z M 4.421875 -49.65625 "/></g></g></g><g fill="#2b394c" fill-opacity="1"><g transform="translate(265.428456, 66.940763)"><g><path d="M 3.03125 -49.578125 L 2.359375 -49.875 L 20.65625 -49.875 L 20.734375 -30.109375 L 20.734375 -10.625 L 21.171875 -9.515625 C 21.859375 -7.304688 23.601562 -5.757812 26.40625 -4.875 C 27.050781 -4.820312 27.375 -4.648438 27.375 -4.359375 C 27.375 -4.253906 27.375 -3.757812 27.375 -2.875 C 27.375 -1.988281 27.347656 -0.710938 27.296875 0.953125 L 27.296875 6.046875 C 25.234375 6.046875 23.164062 5.945312 21.09375 5.75 C 19.03125 5.550781 17.066406 4.914062 15.203125 3.84375 C 13.035156 2.800781 11.148438 1.375 9.546875 -0.4375 C 7.953125 -2.257812 6.785156 -4.300781 6.046875 -6.5625 C 5.847656 -7.25 5.6875 -7.945312 5.5625 -8.65625 C 5.445312 -9.375 5.363281 -10.15625 5.3125 -11 C 5.257812 -11.78125 5.222656 -13.617188 5.203125 -16.515625 C 5.179688 -19.421875 5.171875 -23.335938 5.171875 -28.265625 L 5.171875 -31.796875 C 5.210938 -35.785156 5.222656 -38.957031 5.203125 -41.3125 C 5.179688 -43.675781 5.144531 -45.203125 5.09375 -45.890625 C 5.039062 -47.171875 4.796875 -48.054688 4.359375 -48.546875 C 3.910156 -48.992188 3.46875 -49.335938 3.03125 -49.578125 Z M 32.90625 -49.65625 C 32.707031 -49.707031 32.753906 -49.78125 33.046875 -49.875 L 51.421875 -49.875 L 51.421875 -30.6875 C 51.421875 -24.488281 51.410156 -19.71875 51.390625 -16.375 C 51.367188 -13.03125 51.332031 -11.160156 51.28125 -10.765625 C 50.976562 -8.210938 50.273438 -5.890625 49.171875 -3.796875 C 48.066406 -1.703125 46.648438 0.0507812 44.921875 1.46875 C 43.203125 2.894531 41.234375 4 39.015625 4.78125 C 36.804688 5.570312 34.453125 5.96875 31.953125 5.96875 L 29.359375 5.96875 L 29.4375 0.4375 L 29.4375 -4.875 L 29.953125 -4.9375 C 31.285156 -5.1875 32.488281 -5.863281 33.5625 -6.96875 C 34.644531 -8.070312 35.410156 -9.390625 35.859375 -10.921875 C 36.003906 -11.515625 36.078125 -17.46875 36.078125 -28.78125 C 36.078125 -40.289062 36.003906 -46.265625 35.859375 -46.703125 C 35.410156 -48.078125 34.425781 -49.0625 32.90625 -49.65625 Z M 32.90625 -49.65625 "/></g></g></g><g fill="#2b394c" fill-opacity="1"><g transform="translate(322.004535, 66.940763)"><g><path d="M 21.6875 -50.3125 C 21.882812 -50.363281 22.273438 -50.398438 22.859375 -50.421875 C 23.453125 -50.453125 24.21875 -50.441406 25.15625 -50.390625 C 26.726562 -50.335938 28.226562 -50.238281 29.65625 -50.09375 C 31.082031 -49.945312 32.457031 -49.6875 33.78125 -49.3125 C 35.113281 -48.945312 36.421875 -48.429688 37.703125 -47.765625 C 38.984375 -47.109375 40.210938 -46.238281 41.390625 -45.15625 C 43.304688 -43.382812 44.679688 -41.269531 45.515625 -38.8125 C 45.617188 -38.5625 45.734375 -38.226562 45.859375 -37.8125 C 45.984375 -37.394531 46.09375 -36.914062 46.1875 -36.375 C 46.28125 -35.832031 46.363281 -35.390625 46.4375 -35.046875 C 46.519531 -34.703125 46.5625 -34.457031 46.5625 -34.3125 L 46.5625 -33.9375 L 32.09375 -33.9375 L 31.953125 -34.75 C 31.796875 -35.632812 31.445312 -36.394531 30.90625 -37.03125 C 30.375 -37.675781 29.75 -38.21875 29.03125 -38.65625 C 28.320312 -39.101562 27.546875 -39.425781 26.703125 -39.625 C 25.867188 -39.820312 25.035156 -39.921875 24.203125 -39.921875 C 21.148438 -39.921875 19.578125 -38.46875 19.484375 -35.5625 C 19.484375 -34.425781 20.070312 -33.441406 21.25 -32.609375 C 22.425781 -31.773438 24.539062 -30.914062 27.59375 -30.03125 C 30 -29.238281 32.050781 -28.546875 33.75 -27.953125 C 35.445312 -27.367188 36.863281 -26.804688 38 -26.265625 C 39.082031 -25.722656 40.039062 -25.164062 40.875 -24.59375 C 41.707031 -24.03125 42.445312 -23.457031 43.09375 -22.875 C 44.707031 -21.300781 45.945312 -19.457031 46.8125 -17.34375 C 47.675781 -15.226562 48.054688 -13.035156 47.953125 -10.765625 C 47.753906 -7.566406 46.941406 -4.882812 45.515625 -2.71875 C 44.097656 -0.5625 42.28125 1.175781 40.0625 2.5 C 37.851562 3.832031 35.378906 4.78125 32.640625 5.34375 C 29.910156 5.914062 27.144531 6.222656 24.34375 6.265625 C 21.832031 6.265625 19.46875 5.992188 17.25 5.453125 C 15.039062 4.910156 13.039062 4.070312 11.25 2.9375 C 9.457031 1.8125 7.90625 0.34375 6.59375 -1.46875 C 5.289062 -3.289062 4.296875 -5.484375 3.609375 -8.046875 C 3.117188 -9.671875 2.875 -10.875 2.875 -11.65625 C 2.875 -11.851562 5.332031 -11.90625 10.25 -11.8125 L 17.703125 -11.8125 L 17.78125 -10.765625 C 18.070312 -9.335938 18.695312 -8.070312 19.65625 -6.96875 C 20.613281 -5.863281 21.734375 -5.113281 23.015625 -4.71875 C 23.359375 -4.625 23.75 -4.550781 24.1875 -4.5 C 24.632812 -4.445312 25.128906 -4.421875 25.671875 -4.421875 C 26.898438 -4.421875 28.082031 -4.640625 29.21875 -5.078125 C 30.351562 -5.523438 31.164062 -6.390625 31.65625 -7.671875 C 32.144531 -8.703125 32.191406 -9.882812 31.796875 -11.21875 C 31.398438 -12.644531 30.8125 -13.648438 30.03125 -14.234375 C 29.09375 -14.972656 26.554688 -15.910156 22.421875 -17.046875 C 20.410156 -17.585938 18.628906 -18.128906 17.078125 -18.671875 C 15.523438 -19.210938 14.1875 -19.753906 13.0625 -20.296875 C 9.8125 -21.867188 7.507812 -23.796875 6.15625 -26.078125 C 4.800781 -28.367188 4.203125 -31.382812 4.359375 -35.125 C 4.453125 -37.476562 4.914062 -39.53125 5.75 -41.28125 C 6.59375 -43.03125 7.710938 -44.519531 9.109375 -45.75 C 10.515625 -46.976562 12.148438 -47.957031 14.015625 -48.6875 C 15.890625 -49.425781 17.90625 -49.921875 20.0625 -50.171875 C 20.363281 -50.171875 20.6875 -50.191406 21.03125 -50.234375 C 21.375 -50.285156 21.59375 -50.3125 21.6875 -50.3125 Z M 21.6875 -50.3125 "/></g></g></g></svg>